<svg xmlns="http://www.w3.org/2000/svg" viewBox="0 0 1579 1464" fill="none">
  <path d="M845.534 1.61656C722.602 298.182 451.535 572.409 0.514358 572.336V673.003C125.651 673.003 243.586 694.9 364.534 731.053C265.042 771.834 142.698 791.747 0.587839 791.747L0 892.635C311.041 894.987 536.11 1037.68 729.509 1251.51L729.436 1097.2C607.459 969.863 488.422 899.763 340.947 848.621C403.552 831.941 451.314 813.277 507.232 787.559C595.482 835.615 654.854 878.307 728.995 935.988L728.848 801.299C679.91 766.911 664.48 754.64 624.947 730.612C717.753 671.534 766.249 632.075 845.167 563.445L845.24 417.219C727.599 549.116 639.717 613.705 508.776 677.045C441.762 648.241 399.217 632.369 341.021 617.305C545.442 540.592 699.089 415.015 844.947 213.974L844.726 207.14L844.653 0L845.167 1.61656H845.534Z" fill="#F5F5F5"/>
  <path d="M845.534 209.344C1012.77 419.35 1222.63 568.073 1578.64 573.364V672.341C1425.36 673.958 1318.45 698.353 1210.22 734.138C1309.49 773.376 1413.83 793.216 1577.54 792.995L1577.1 892.267C1245.56 898.954 950.831 1086.03 729.876 1463.21V1245.41C852.809 1056.05 1005.06 937.751 1235.49 848.252C1167.16 827.237 1127.48 812.982 1072.22 786.75C938.78 859.642 847.444 928.933 730.905 1054.51L730.832 903.142C806.296 828.78 866.843 779.622 954.358 730.243C901.379 696.149 875.44 680.057 845.828 662.348L845.975 532.95C923.937 594.452 978.827 635.087 1069.43 678.587C1135.19 645.448 1171.34 634.499 1235.71 615.762C1063.77 547.719 971.773 481.22 845.24 370.412L845.754 209.344H845.534Z" fill="#F5F5F5"/>
</svg>
